# xmcd
# Track frame offsets:
# 150
# 17801
# 34385
# 57916
# 78010
# 95850
# 113967
# 130427
# 151546
# 164754
# 196193
# 213299
#
# Disc length: 3124 seconds
# Revision: 0
# Processed by: cddbd v1.4PL0 Copyright (c) Steve Scherf et al.
# Submitted via: VisiTrax 2.9.5.181 - For more info visit www.synapsa.com
#
DISCID=9f0c320c
DTITLE=Carey Bell - Deep Down
DYEAR=1995
DGENRE=
TTITLE0=I Got To Go
TTITLE1=Let Me Stir In Your Pot
TTITLE2=When I Get Drunk
TTITLE3=Low Down Dirty Shame
TTITLE4=Borrow Your Love
TTITLE5=Lonesome Stranger
TTITLE6=After You
TTITLE7=I Got A Rich Man's Woman
TTITLE8=Jawbreaker
TTITLE9=Must I Holler?
TTITLE10=Tired Of Giving You My Love
TTITLE11=Easy
EXTD=
EXTT0=
EXTT1=
EXTT2=
EXTT3=
EXTT4=
EXTT5=
EXTT6=
EXTT7=
EXTT8=
EXTT9=
EXTT10=
EXTT11=
PLAYORDER=
